<?xml version="1.0" encoding="UTF-8" standalone="no"?>
<!DOCTYPE svg PUBLIC "-//W3C//DTD SVG 1.0//EN" "http://www.w3.org/TR/2001/PR-SVG-20010719/DTD/svg10.dtd">
<svg width="38cm" height="28cm" viewBox="80 -15 751 556" xmlns="http://www.w3.org/2000/svg" xmlns:xlink="http://www.w3.org/1999/xlink">
  <line style="fill: none; fill-opacity:0; stroke-width: 2; stroke: #000000" x1="99" y1="39" x2="99" y2="540"/>
  <line style="fill: none; fill-opacity:0; stroke-width: 2; stroke: #000000" x1="401.404" y1="38.304" x2="402" y2="535"/>
  <line style="fill: none; fill-opacity:0; stroke-width: 2; stroke: #000000" x1="500.804" y1="39.604" x2="501" y2="539"/>
  <line style="fill: none; fill-opacity:0; stroke-width: 2; stroke: #000000" x1="800.204" y1="40.904" x2="801" y2="540"/>
  <text font-size="16" style="fill: #000000;text-anchor:start;font-family:sans-serif;font-style:normal;font-weight:700" x="200" y="0">
    <tspan x="200" y="0">Niveau TCP</tspan>
  </text>
  <text font-size="16" style="fill: #000000;text-anchor:start;font-family:sans-serif;font-style:normal;font-weight:700" x="580" y="0">
    <tspan x="580" y="0">Niveau application</tspan>
  </text>
  <g>
    <line style="fill: none; fill-opacity:0; stroke-width: 2; stroke: #000000" x1="449" y1="59" x2="449.907" y2="154.264"/>
    <polygon style="fill: #000000" points="449.979,161.764 444.884,151.812 449.907,154.264 454.883,151.717 "/>
    <polygon style="fill: none; fill-opacity:0; stroke-width: 2; stroke: #000000" points="449.979,161.764 444.884,151.812 449.907,154.264 454.883,151.717 "/>
  </g>
  <text font-size="12.8" style="fill: #000000;text-anchor:start;font-family:sans-serif;font-style:normal;font-weight:normal" x="434" y="49">
    <tspan x="434" y="49">temps</tspan>
  </text>
  <text font-size="12.8" style="fill: #000000;text-anchor:start;font-family:sans-serif;font-style:normal;font-weight:normal" x="80" y="20">
    <tspan x="80" y="20">Client</tspan>
  </text>
  <text font-size="12.8" style="fill: #000000;text-anchor:start;font-family:sans-serif;font-style:normal;font-weight:normal" x="480" y="20">
    <tspan x="480" y="20">Client</tspan>
  </text>
  <text font-size="12.8" style="fill: #000000;text-anchor:start;font-family:sans-serif;font-style:normal;font-weight:normal" x="380" y="20">
    <tspan x="380" y="20">Serveur</tspan>
  </text>
  <text font-size="12.8" style="fill: #000000;text-anchor:start;font-family:sans-serif;font-style:normal;font-weight:normal" x="780" y="20">
    <tspan x="780" y="20">Serveur</tspan>
  </text>
</svg>
